{"accessors" : [{"bufferView" : 0, "byteOffset" : 0, "componentType" : 5123, "count" : 648, "type" : "SCALAR", "max" : [551], "min" : [0]}, {"bufferView" : 1, "byteOffset" : 0, "componentType" : 5126, "count" : 552, "type" : "VEC3", "max" : [-2.353285312652588, 9.46894645690918, 9], "min" : [-12.007405281066895, -0.1891116350889206, 0], "name" : "POSITION"}, {"bufferView" : 1, "byteOffset" : 12, "componentType" : 5126, "count" : 552, "type" : "VEC3", "max" : [0.9983735084533691, 0.9995965957641602, 1.0000044107437134], "min" : [-1.0000044107437134, -0.9995965957641602, -1.0000044107437134], "name" : "NORMAL"}, {"bufferView" : 1, "byteOffset" : 24, "componentType" : 5126, "count" : 552, "type" : "VEC2", "max" : [4.830999374389648, 15.177032470703125], "min" : [-9, -14.177032470703125], "name" : "TEXCOORD_0"}, {"bufferView" : 0, "byteOffset" : 1296, "componentType" : 5123, "count" : 36, "type" : "SCALAR", "max" : [35], "min" : [0]}, {"bufferView" : 2, "byteOffset" : 0, "componentType" : 5126, "count" : 36, "type" : "VEC3", "max" : [6.743567943572998, 4.6674089431762695, 7], "min" : [-2.2890260219573975, -4.330589771270752, 0], "name" : "POSITION"}, {"bufferView" : 2, "byteOffset" : 12, "componentType" : 5126, "count" : 36, "type" : "VEC3", "max" : [0.9143775105476379, 0.9143775105476379, 1.0000044107437134], "min" : [-0.9143775105476379, -0.9143775105476379, -1.0000044107437134], "name" : "NORMAL"}, {"bufferView" : 2, "byteOffset" : 24, "componentType" : 5126, "count" : 36, "type" : "VEC2", "max" : [6.8676276206970215, 4.498999118804932], "min" : [-4.516296863555908, -6], "name" : "TEXCOORD_0"}, {"bufferView" : 0, "byteOffset" : 1368, "componentType" : 5123, "count" : 36, "type" : "SCALAR", "max" : [35], "min" : [0]}, {"bufferView" : 3, "byteOffset" : 0, "componentType" : 5126, "count" : 36, "type" : "VEC3", "max" : [-1, -1.3919752836227417, 4], "min" : [-7.1145405769348145, -7.5, 0], "name" : "POSITION"}, {"bufferView" : 3, "byteOffset" : 12, "componentType" : 5126, "count" : 36, "type" : "VEC3", "max" : [1.0000044107437134, 1.0000044107437134, 1.0000044107437134], "min" : [-1.0000044107437134, -1.0000044107437134, -1.0000044107437134], "name" : "NORMAL"}, {"bufferView" : 3, "byteOffset" : 24, "componentType" : 5126, "count" : 36, "type" : "VEC2", "max" : [6.1145405769348145, 3.0540122985839844], "min" : [-3.0572702884674072, -3], "name" : "TEXCOORD_0"}], "asset" : {"generator" : "Aspose.3D 23.11.1", "version" : "2.0"}, "buffers" : [{"uri" : "data:application/octet-stream;base64,", "byteLength" : 24496}], "bufferViews" : [{"buffer" : 0, "byteOffset" : 0, "byteLength" : 1440, "target" : 34963}, {"buffer" : 0, "byteOffset" : 1444, "byteLength" : 20736, "byteStride" : 32, "target" : 34962}, {"buffer" : 0, "byteOffset" : 22184, "byteLength" : 1152, "byteStride" : 32, "target" : 34962}, {"buffer" : 0, "byteOffset" : 23340, "byteLength" : 1152, "byteStride" : 32, "target" : 34962}], "materials" : [{"name" : "F_d68d22e03b6c4c2392d72e6cfe5dfe23", "pbrMetallicRoughness" : {"baseColorFactor" : [0.8100008368492126, 0.4200003147125244, 0.017000015825033188, 1], "metallicFactor" : 0, "roughnessFactor" : 0.7071070075035095}, "emissiveFactor" : [0, 0, 0], "alphaMode" : "OPAQUE", "doubleSided" : false}, {"name" : "F_527e931704214fb4a4aff4db751a1d36", "pbrMetallicRoughness" : {"baseColorFactor" : [0.5500004887580872, 0.034999944269657135, 0.02000005915760994, 1], "metallicFactor" : 0, "roughnessFactor" : 0.12247399985790253}, "emissiveFactor" : [0, 0, 0], "alphaMode" : "OPAQUE", "doubleSided" : false}, {"name" : "F_b2273aabb46a4c529c4f7fdb94c1bddc", "pbrMetallicRoughness" : {"baseColorFactor" : [0.09999984502792358, 0.2999994456768036, 0.7000002264976501, 1], "metallicFactor" : 1, "roughnessFactor" : 0.12247399985790253}, "emissiveFactor" : [0, 0, 0], "alphaMode" : "OPAQUE", "doubleSided" : false}], "meshes" : [{"primitives" : [{"attributes" : {"POSITION" : 1, "NORMAL" : 2, "TEXCOORD_0" : 3}, "indices" : 0, "material" : 0, "mode" : 4}], "name" : "_________1"}, {"primitives" : [{"attributes" : {"POSITION" : 5, "NORMAL" : 6, "TEXCOORD_0" : 7}, "indices" : 4, "material" : 1, "mode" : 4}], "name" : "_________2"}, {"primitives" : [{"attributes" : {"POSITION" : 9, "NORMAL" : 10, "TEXCOORD_0" : 11}, "indices" : 8, "material" : 2, "mode" : 4}], "name" : "_________3"}], "nodes" : [{"matrix" : [10, 0, 0, 0, 0, 10, 0, 0, 0, 0, 10, 0, 0, 0, 0, 1], "mesh" : 0, "name" : "_________1"}, {"matrix" : [10, 0, 0, 0, 0, 10, 0, 0, 0, 0, 10, 0, 0, 0, 0, 1], "mesh" : 1, "name" : "_________2"}, {"matrix" : [10, 0, 0, 0, 0, 10, 0, 0, 0, 0, 10, 0, 0, 0, 0, 1], "mesh" : 2, "name" : "_________3"}, {"children" : [0, 1, 2], "name" : "AR_Test_v0"}, {"children" : [3], "matrix" : [1, 0, 0, 0, 0, 0, -1, 0, 0, 1, 0, 0, 0, 0, 0, 1], "name" : "AR_Test_v0_file"}], "scene" : 0, "scenes" : [{"nodes" : [4]}]}